<svg width="100" height="100" viewBox="0 0 100 100" fill="none" xmlns="http://www.w3.org/2000/svg">
  <circle cx="50" cy="50" r="45" fill="#00AFAF" />
  <path d="M30 60C35.5228 60 40 55.5228 40 50C40 44.4772 35.5228 40 30 40C24.4772 40 20 44.4772 20 50C20 55.5228 24.4772 60 30 60Z" fill="white" />
  <path d="M70 60C75.5228 60 80 55.5228 80 50C80 44.4772 75.5228 40 70 40C64.4772 40 60 44.4772 60 50C60 55.5228 64.4772 60 70 60Z" fill="white" />
  <path d="M35 75C45.4934 75 54 73.6569 54 72C54 70.3431 45.4934 69 35 69C24.5066 69 16 70.3431 16 72C16 73.6569 24.5066 75 35 75Z" fill="white" />
  <path d="M65 75C75.4934 75 84 73.6569 84 72C84 70.3431 75.4934 69 65 69C54.5066 69 46 70.3431 46 72C46 73.6569 54.5066 75 65 75Z" fill="white" />
</svg>